<svg width="63" height="187" viewBox="0 0 63 187" fill="none" xmlns="http://www.w3.org/2000/svg">
<path d="M31.4999 32.6C34.9793 32.6 37.7999 29.7794 37.7999 26.3C37.7999 22.8206 34.9793 20 31.4999 20C28.0206 20 25.2 22.8206 25.2 26.3C25.2 29.7794 28.0206 32.6 31.4999 32.6Z" fill="#F56B4E"/>
<path d="M31.5 0.050293C14.1036 0.050293 0 14.156 0 31.5545V84.0461C0 101.445 14.1036 115.55 31.5 115.55C48.8964 115.55 63 101.445 63 84.0461V31.5545C63 14.156 48.8964 0.050293 31.5 0.050293ZM58.8 84.0461C58.8 99.101 46.5528 111.35 31.5 111.35C16.4472 111.35 4.2 99.101 4.2 84.0461V31.5545C4.2 16.4996 16.4472 4.25029 31.5 4.25029C46.5528 4.25029 58.8 16.4996 58.8 31.5545V84.0461Z" fill="#F56B4E"/>
<path d="M59.4153 124.565L31.5 152.48L3.58474 124.565C2.76364 123.744 1.43644 123.744 0.615337 124.565C-0.205763 125.386 -0.205763 126.713 0.615337 127.534L30.0153 156.934C30.4248 157.344 30.9624 157.55 31.5 157.55C32.0376 157.55 32.5752 157.344 32.9847 156.934L62.3847 127.534C63.2058 126.713 63.2058 125.386 62.3847 124.565C61.5636 123.744 60.2364 123.744 59.4153 124.565Z" fill="#F56B4E"/>
<path d="M59.4153 153.965L31.5 181.881L3.58474 153.965C2.76364 153.144 1.43644 153.144 0.615337 153.965C-0.205763 154.787 -0.205763 156.114 0.615337 156.935L30.0153 186.335C30.4248 186.744 30.9624 186.95 31.5 186.95C32.0376 186.95 32.5752 186.744 32.9847 186.335L62.3847 156.935C63.2058 156.114 63.2058 154.787 62.3847 153.965C61.5636 153.144 60.2364 153.144 59.4153 153.965Z" fill="#F56B4E"/>
</svg>
